<?xml version="1.0" encoding="utf-8"?>
<!-- Generator: Adobe Illustrator 24.2.0, SVG Export Plug-In . SVG Version: 6.00 Build 0)  -->
<svg version="1.1" id="Layer_1" xmlns="http://www.w3.org/2000/svg" xmlns:xlink="http://www.w3.org/1999/xlink" x="0px" y="0px"
	 viewBox="0 0 936 936" style="enable-background:new 0 0 936 936;" xml:space="preserve">
<style type="text/css">
	.st0{fill:#FF0000;}
	.st1{fill:#FFFF73;}
	.st2{fill:#2138BD;}
	.st3{fill:#086321;}
</style>
<g>
	<g>
		<path class="st0" d="M251.7,74c85.8-47.5,187.5-66,284.4-50.9c74.2,10.9,145.4,41.4,204.8,87c52.6,40.3,96.3,92.3,126.8,151.1
			c24.7,47.6,40.9,99.6,47,152.9c-13.1-64.7-39.2-126.8-77-181c-37.7-54-87.2-100-144.8-132.1c-36.6-20.5-76.3-35.3-117.4-43.6
			c-42.2-8.7-85.7-9.9-128.5-5.9c-40.3,3.6-80.3,12-118.3,26.1c-34.7,12.8-67.7,30.4-97.3,52.6c-52,38.8-92.8,91.7-119.3,150.8
			c-15.8,35-26.8,72.1-33.6,109.9c-9,53.3-7.3,108.4,5.4,160.9c14.4,60.4,43.2,117.3,82.9,165c22.8,27.5,49.1,52,78,73
			c23.2,17.4,49.4,30.7,76.8,40.4c38.4,13.5,78.8,20.7,119.3,23c38.6,2.2,77.5-1.2,115.2-9.6c57.8-12.9,112.9-39.8,156.5-80.3
			c44.6-41,76.5-95.3,92-153.8c9.7-36.4,13.4-74.4,10.9-111.9c-2.8-33.4-15.3-67-39.5-90.8c-25-25.1-61.8-37.8-97-32.9
			c-19.7,2.6-38.9,10.8-53.8,24.1c-12.3,10.9-21.3,25.2-26.4,40.7c-5.9,17.7-6.7,36.8-4.6,55.3c-29.1-14.8-54.9-36.2-74-62.7
			c-22.3-30.6-35.5-67.1-41.5-104.4c-5.3-32.8-5.2-66.4-1.4-99.3c15.1,0,30.1,0,45.2,0c-10.4,40.4-11.9,82.8-7,124.2
			c3.1,24.6,8.5,49.1,18.5,71.9c6.3,13.9,14.3,27.5,26.5,36.9c-19.7-28-31.3-61.2-35.5-95.1c-5.3-42.4-0.5-85.5,9.4-126.8
			c4.3-17.8,9.6-35.4,15.7-52.7c24.6,0.1,49.2,0.2,73.7,0.3c-21.9,30-40.9,62.4-54.4,97c-13.6,34.9-21.9,72.7-18.4,110.3
			c2.6,29.3,13.6,57.9,31.7,81.2c-16.5-32-26-67.9-24.7-104c1.1-39.6,14.8-78,35.1-111.7c28.2-46.5,67.8-85.3,111.6-117.2
			c58.6,35.8,109.8,84.4,146.5,142.6c34.8,54.8,55.4,118.5,59,183.3c2.1,30.9-0.7,61.9-6.2,92.3c-8.7,47.3-25.3,93.1-49,134.8
			c-9.1,16.3-19.6,31.7-30.5,46.8c-45,59.9-105.8,107.4-174.2,137.6c-47.7,21.4-99.2,34-151.4,37.5c-65.7,4.6-132.4-5.5-193.8-29.3
			c-65-25.1-123.8-65.8-170.3-117.6C80.5,709.8,42,634.9,26.4,555.1c-10.8-55-11.2-112-1.3-167.2c13.7-76.1,47.7-148.3,97.3-207.5
			c20.6-24.8,44-47.3,69.4-67C210.9,98.9,230.9,85.8,251.7,74z"/>
		<path class="st0" d="M435.4,99.5c18.5-3,37.2-5,56-3.9c-29.8,131.4-59.9,262.7-89.6,394.1c38.8,14.7,77.8,29.7,118.8,36.5
			c17.8,2.6,36.6,4.2,53.9-1.9c10.4-3.5,19.1-11.5,23.3-21.7c1,8.9,0.4,18.6-5.2,26.1c-6.4,8.7-17.3,12.5-27.5,14.5
			c-14.6,2.6-29.5,2.1-44.1,1.2c-20-1-39.4-6.3-58.9-10.2c-44.8-9.7-91-16.8-136.9-11.3c-22.5,2.6-44.6,8.4-65.5,17.2
			c29.9-138.3,59.8-276.6,89.6-414.8C376.8,112.9,405.8,104.5,435.4,99.5z"/>
		<path class="st0" d="M688,443.7c3-8.6,5.6-17.3,8.5-26c3,8.6,5.2,17.6,8.6,25.9c9,0.1,18,0,27,0c-7.3,5.3-14.6,10.7-22,15.9
			c2.6,8.8,5.6,17.4,8.4,26.1c-7.4-5.3-14.7-10.8-22.1-16.1c-7.3,5.4-14.7,10.7-22,16.1c2.8-8.6,5.7-17.3,8.5-25.9
			c-7.3-5.4-14.7-10.6-22.1-16C669.9,443.6,678.9,443.6,688,443.7z"/>
		<g>
			<path class="st0" d="M305.1,641.2c7.6-0.8,15.7,0.1,22.2,4.5c6.5,4.3,10.7,11.6,11.6,19.2c1.6,13.5-3.2,27.6-12.6,37.4
				c-9.2,9.5-23.5,13.2-36.3,10.1c-6.5-1.6-12.3-5.8-15.9-11.5c-3.7-6.3-4.9-13.9-3.9-21c1.3-10.1,5.1-20.2,12.2-27.6
				C288.4,646.1,296.5,642,305.1,641.2z M305.1,653.2c-4.9,0.8-9.3,3.7-12.3,7.6c-5.6,7-8.8,16.1-8.4,25.1c0.2,5.5,3.2,10.8,8,13.5
				c9.1,5,20.6-0.2,25.7-8.5c4.3-6.7,7-14.8,6.4-22.8c-0.3-4.5-2.2-9-5.8-11.8C315,653.1,309.8,652.4,305.1,653.2z"/>
		</g>
		<g>
			<path class="st0" d="M532.8,647.7c8.8-6.3,20.2-7.9,30.7-6.2c7,1.2,13.8,5.4,16.9,12c2.8,5.7,2.7,12.4,1.2,18.5
				c-2.9,13.4-5.7,26.8-8.5,40.1c-5.7,0-11.4,0-17.1,0c2.2-9.9,4.4-19.8,6.6-29.6c-9.6,0-19.2,0-28.8,0c-2.3,9.9-4.6,19.8-6.9,29.6
				c-6,0-12.1,0-18.1,0c3.2-14.1,6.4-28.2,9.7-42.2C520.6,661.2,525.5,653,532.8,647.7z M547.8,654.8c-6.3,2.5-9.6,9.2-11.2,15.4
				c9.5,0,18.9,0,28.4,0c1.1-4.4,1.3-9.7-2-13.3C559.1,653,552.7,653,547.8,654.8z"/>
		</g>
		<path class="st0" d="M240.4,642.2c5.6,0,11.2,0,16.7,0c-4,19.3-8.1,38.5-12,57.8c6.5,0,13.1,0,19.6,0c-0.8,4.1-1.6,8.1-2.5,12.2
			c-12.1,0-24.2,0-36.3,0C230.7,688.8,235.6,665.5,240.4,642.2z"/>
		<path class="st0" d="M351.2,642.2c6.2,0,12.4,0,18.6,0c5.4,14.4,10.7,28.9,16,43.4c2.9-14.4,5.8-28.9,8.7-43.3
			c5.4,0,10.8-0.1,16.2,0c-4.7,23.3-9.4,46.6-14.1,70c-5.8,0-11.6,0.1-17.4-0.1c-5.6-14.7-11.2-29.3-16.9-44
			c-2.9,14.7-5.9,29.4-8.8,44.1c-5.4,0.1-10.8-0.1-16.3,0.1C341.6,688.8,346.7,665.5,351.2,642.2z"/>
		<path class="st0" d="M431.6,648.5c11-6.5,24.9-8.5,37.1-4.3c8.5,3,16.5,9.8,18.1,19.1c-6.4-0.1-12.8,0-19.2,0
			c-1.3-3.1-3.4-6-6.5-7.4c-6-3-13.3-2-18.9,1.3c-7.7,4.4-14,12-15.7,20.8c-1.6,8.2,2.7,17.3,10.4,21c4.2,2.1,9.2,2.2,13.6,0.4
			c5.2-2.1,10.7-5.4,12.7-10.9c-8.6-0.1-17.2,0-25.8,0c0.8-4,1.6-7.9,2.4-11.8c16.1,0,32.1,0,48.2,0c-1.6,10-7.5,18.9-15.4,25
			c-11.2,9.2-26.5,13.4-40.7,10.2c-9.3-2-17.7-8.5-21.6-17.3c-3.2-7.5-2.3-16.1,0.6-23.5C414.8,661.3,422.7,653.7,431.6,648.5z"/>
		<path class="st0" d="M594.1,642.2c6.2,0,12.4,0,18.6,0c5.4,14.5,10.7,28.9,16,43.4c2.9-14.5,5.8-28.9,8.7-43.4
			c5.4,0,10.8-0.1,16.2,0c-4.8,23.3-9.2,46.8-14.2,70c-5.7-0.2-11.5,0-17.2-0.1c-5.6-14.7-11.3-29.4-16.9-44.1
			c-3.1,14.7-5.8,29.5-8.9,44.2c-5.5-0.1-10.9,0-16.4,0C584.7,688.8,589.4,665.5,594.1,642.2z"/>
	</g>
	<g>
		<g>
			<path class="st1" d="M447.1,51.6c42.8-4,86.3-2.8,128.5,5.9c41.1,8.3,80.8,23.1,117.4,43.6c57.6,32.1,107.1,78.1,144.8,132.1
				c37.9,54.1,64,116.3,77,181c7.7,64.1,1.5,130-18.2,191.5c-14.5,45.2-36.3,88.1-64.2,126.5c-2.6,3.2-4.6,7-7.7,9.7
				c11-15,21.4-30.5,30.5-46.8c23.7-41.8,40.4-87.6,49-134.8c5.5-30.4,8.3-61.4,6.2-92.3c-3.6-64.8-24.2-128.5-59-183.3
				c-36.8-58.2-87.9-106.8-146.5-142.6c-43.8,31.9-83.4,70.7-111.6,117.2c-20.4,33.7-34,72.1-35.1,111.7c-1.3,36.1,8.2,72,24.7,104
				c-18.2-23.2-29.1-51.8-31.7-81.2c-3.5-37.6,4.8-75.3,18.4-110.3c13.6-34.6,32.5-67,54.4-97c-24.6-0.1-49.2-0.2-73.7-0.3
				c-6.1,17.3-11.4,34.9-15.7,52.7c-9.9,41.4-14.7,84.4-9.4,126.8c4.2,33.9,15.7,67.1,35.5,95.1c-12.2-9.4-20.3-23.1-26.5-36.9
				c-10-22.8-15.4-47.3-18.5-71.9c-4.9-41.4-3.5-83.8,7-124.2c-15.1,0-30.1,0-45.2,0c-3.8,33-3.9,66.5,1.4,99.3
				c6,37.2,19.2,73.8,41.5,104.4c19.1,26.5,44.9,47.9,74,62.7c-2.2-18.5-1.3-37.5,4.6-55.3c5.1-15.6,14.2-29.9,26.4-40.7
				c14.9-13.4,34-21.5,53.8-24.1c35.1-4.8,72,7.8,97,32.9c24.2,23.8,36.7,57.4,39.5,90.8c2.5,37.6-1.1,75.6-10.9,111.9
				c-15.5,58.5-47.4,112.7-92,153.8c-43.5,40.4-98.7,67.4-156.5,80.3c-37.7,8.5-76.6,11.9-115.2,9.6c-40.5-2.3-81-9.4-119.3-23
				c-27.4-9.6-53.5-22.9-76.8-40.4c-28.9-21-55.2-45.5-78-73c-39.7-47.8-68.5-104.6-82.9-165c-12.7-52.5-14.4-107.6-5.4-160.9
				c6.8-37.8,17.8-74.9,33.6-109.9c26.5-59.1,67.3-112,119.3-150.8c29.6-22.2,62.6-39.8,97.3-52.6C366.7,63.7,406.7,55.3,447.1,51.6
				z M435.4,99.5c-29.6,5-58.7,13.4-86.2,25.6c-29.9,138.3-59.8,276.5-89.6,414.8c20.9-8.9,43-14.7,65.5-17.2
				c45.9-5.5,92.1,1.6,136.9,11.3c19.5,3.9,38.9,9.2,58.9,10.2c14.7,0.9,29.6,1.4,44.1-1.2c10.3-1.9,21.1-5.7,27.5-14.5
				c5.6-7.4,6.2-17.2,5.2-26.1c-4.2,10.2-12.9,18.2-23.3,21.7c-17.3,6.1-36.1,4.5-53.9,1.9c-41.1-6.8-80.1-21.8-118.8-36.5
				c29.8-131.4,59.8-262.7,89.6-394.1C472.7,94.5,453.9,96.5,435.4,99.5z M688,443.7c-9.1-0.1-18.1-0.1-27.2-0.1
				c7.3,5.4,14.7,10.6,22.1,16c-2.8,8.6-5.7,17.3-8.5,25.9c7.3-5.4,14.7-10.7,22-16.1c7.4,5.3,14.7,10.7,22.1,16.1
				c-2.8-8.7-5.8-17.3-8.4-26.1c7.4-5.2,14.7-10.6,22-15.9c-9,0-18,0.1-27,0c-3.4-8.3-5.7-17.3-8.6-25.9
				C693.6,426.3,691,435.1,688,443.7z M597.4,497.1c8.3,13.1,13.4,29.3,9.5,44.7c-3.4,13.9-14.2,24.8-26.5,31.5
				c-18.1,9.9-38.9,13.2-59.3,14.3c-25.4,1.5-50.7-2.5-76.1-2.9c-20-0.4-40.6-0.3-59.9,5.6c-10.3,3.2-20.9,9.9-23.6,21
				c77.2,0.1,154.3,0,231.5,0c14.2-0.1,28.7-2.6,41.5-9c10.9-5.4,20.4-14,26.2-24.8c8.2-14.9,9.5-33.3,3.7-49.2
				c-4.7-13.5-14.9-25.3-28.3-30.6C623.8,492.7,609.9,493.3,597.4,497.1z M601.6,522.9c-2.9,9.6-10.7,16.8-19.5,21.2
				c-12.6,6.4-26.6,9.1-40.5,10.6c-22.1,2.2-44.5,1.3-66.4-2.4c-31.4-5.9-63.1-10.8-95-11.2c-20.7-0.3-41.6,1.4-61.5,7.3
				c-15.8,4.6-30.8,12.2-43.3,22.8c-13.2,11-23.7,25-31.8,40.2c21.8,0,43.7,0,65.5,0c4.9-12.7,13.9-23.8,25.6-30.8
				c16.6-10.1,36.4-13.1,55.5-13.9c28.4-1.1,56.7,2.7,84.9,5.1c22.6,1.7,45.4,2.5,67.9-0.3c16.1-2.3,32.9-6.3,45.4-17.4
				C597.1,546.4,601.5,534.5,601.6,522.9z M305.1,641.2c-8.6,0.8-16.8,4.9-22.7,11.1c-7.1,7.5-10.9,17.6-12.2,27.6
				c-1,7.2,0.3,14.7,3.9,21c3.5,5.7,9.4,9.8,15.9,11.5c12.8,3,27.1-0.6,36.3-10.1c9.4-9.8,14.3-23.9,12.6-37.4
				c-0.9-7.7-5.1-15-11.6-19.2C320.9,641.3,312.7,640.4,305.1,641.2z M532.8,647.7c-7.4,5.2-12.3,13.5-14.3,22.2
				c-3.3,14.1-6.5,28.1-9.7,42.2c6,0,12.1,0,18.1,0c2.3-9.9,4.6-19.8,6.9-29.6c9.6,0,19.2,0,28.8,0c-2.2,9.9-4.4,19.8-6.6,29.6
				c5.7,0,11.4,0,17.1,0c2.9-13.4,5.7-26.7,8.5-40.1c1.5-6.1,1.6-12.8-1.2-18.5c-3.1-6.6-9.9-10.8-16.9-12
				C553.1,639.8,541.6,641.5,532.8,647.7z M240.4,642.2c-4.8,23.3-9.7,46.6-14.5,70c12.1,0,24.2,0,36.3,0c0.8-4.1,1.7-8.1,2.5-12.2
				c-6.5,0-13,0-19.6,0c4-19.3,8.1-38.5,12-57.8C251.6,642.2,246,642.2,240.4,642.2z M351.2,642.2c-4.5,23.4-9.7,46.6-13.9,70.1
				c5.4-0.2,10.8,0,16.3-0.1c2.9-14.7,5.9-29.4,8.8-44.1c5.6,14.7,11.3,29.3,16.9,44c5.8,0.2,11.6,0,17.4,0.1
				c4.7-23.3,9.4-46.6,14.1-70c-5.4,0-10.8,0-16.2,0c-2.9,14.4-5.8,28.9-8.7,43.3c-5.4-14.4-10.7-28.9-16-43.4
				C363.6,642.2,357.4,642.1,351.2,642.2z M431.6,648.5c-8.9,5.2-16.8,12.8-20.6,22.6c-2.9,7.4-3.8,16-0.6,23.5
				c3.8,8.8,12.3,15.2,21.6,17.3c14.2,3.2,29.6-1,40.7-10.2c7.9-6.2,13.7-15.1,15.4-25c-16.1,0-32.1,0-48.2,0
				c-0.8,3.9-1.6,7.9-2.4,11.8c8.6,0,17.2,0,25.8,0c-2.1,5.5-7.5,8.8-12.7,10.9c-4.3,1.8-9.4,1.7-13.6-0.4c-7.7-3.6-12-12.7-10.4-21
				c1.7-8.9,7.9-16.4,15.7-20.8c5.6-3.3,12.9-4.3,18.9-1.3c3.1,1.4,5.3,4.2,6.5,7.4c6.4,0,12.8-0.1,19.2,0
				c-1.7-9.2-9.6-16-18.1-19.1C456.6,640,442.7,642,431.6,648.5z M594.1,642.2c-4.7,23.3-9.4,46.7-14.1,70c5.5,0,10.9,0,16.4,0
				c3.1-14.7,5.9-29.5,8.9-44.2c5.6,14.7,11.3,29.4,16.9,44.1c5.7,0.1,11.5-0.1,17.2,0.1c5-23.3,9.4-46.7,14.2-70
				c-5.4,0-10.8,0-16.2,0c-2.9,14.5-5.8,28.9-8.7,43.4c-5.4-14.5-10.7-29-16-43.4C606.5,642.2,600.3,642.1,594.1,642.2z"/>
		</g>
		<path class="st1" d="M245.6,76.7c2-1,3.8-2.6,6.1-2.7c-20.8,11.7-40.8,24.9-59.8,39.4c0.8-1.9,2.8-2.8,4.3-4.1
			C211.9,97.4,228.4,86.5,245.6,76.7z"/>
		<path class="st1" d="M305.1,653.2c4.7-0.8,9.9-0.1,13.6,3c3.6,2.8,5.5,7.3,5.8,11.8c0.6,8.1-2.1,16.1-6.4,22.8
			c-5.1,8.4-16.6,13.5-25.7,8.5c-4.8-2.7-7.8-8.1-8-13.5c-0.4-9,2.7-18.1,8.4-25.1C295.9,657,300.2,654.1,305.1,653.2z"/>
		<path class="st1" d="M547.8,654.8c4.9-1.8,11.3-1.8,15.2,2.2c3.3,3.6,3.1,8.8,2,13.3c-9.5,0-18.9,0-28.4,0
			C538.2,664,541.5,657.4,547.8,654.8z"/>
	</g>
	<g>
		<path class="st2" d="M597.4,497.1c12.5-3.8,26.4-4.4,38.7,0.7c13.4,5.4,23.6,17.2,28.3,30.6c5.7,15.9,4.5,34.3-3.7,49.2
			c-5.9,10.8-15.3,19.4-26.2,24.8c-12.8,6.4-27.2,8.9-41.5,9c-77.2,0-154.3,0-231.5,0c2.7-11.1,13.3-17.8,23.6-21
			c19.3-5.9,39.9-5.9,59.9-5.6c25.4,0.3,50.6,4.4,76.1,2.9c20.3-1.1,41.2-4.5,59.3-14.3c12.3-6.7,23.1-17.6,26.5-31.5
			C610.8,526.3,605.7,510.2,597.4,497.1z"/>
	</g>
	<g>
		<path class="st3" d="M601.6,522.9c-0.1,11.6-4.5,23.5-13.4,31.2c-12.5,11-29.3,15.1-45.4,17.4c-22.5,2.8-45.3,2-67.9,0.3
			c-28.3-2.4-56.5-6.3-84.9-5.1c-19.1,0.8-38.9,3.8-55.5,13.9c-11.7,7-20.7,18.1-25.6,30.8c-21.8,0-43.7,0-65.5,0
			c8.1-15.1,18.5-29.2,31.8-40.2c12.6-10.6,27.6-18.2,43.3-22.8c19.9-5.9,40.8-7.6,61.5-7.3c32,0.4,63.7,5.3,95,11.2
			c21.9,3.7,44.3,4.6,66.4,2.4c13.9-1.5,28-4.3,40.5-10.6C590.9,539.7,598.7,532.5,601.6,522.9z"/>
	</g>
</g>
</svg>
